# xmcd
#
# Track frame offsets:
#	150
#	22216
#	49847
#	65147
#	89136
#	108948
#	136150
#	162084
#	187686
#	203290
#	223614
#	241495
#	256089
#
# Disc length: 3678 seconds
#
# Revision: 1
# Processed by: cddbd v1.5.2PL0 Copyright (c) Steve Scherf et al.
# Submitted via: audiograbber 1.83.01
#
DISCID=b20e5c0d
DTITLE=The Blues Buffet - Reality Show
DYEAR=1900
DGENRE=
TTITLE0=She Dressed Me Up
TTITLE1=Reality Show
TTITLE2=Promises
TTITLE3=Too Much Trouble
TTITLE4=In My Room
TTITLE5=Camelia
TTITLE6=A Dingo Took My Baby
TTITLE7=Live It Up
TTITLE8=Are You Kidding Me
TTITLE9=D.I.Y. Girl
TTITLE10=You Essay
TTITLE11=Cold Sausage Ragg
TTITLE12=Yo Yo Mac
EXTD=
EXTT0=
EXTT1=
EXTT2=
EXTT3=
EXTT4=
EXTT5=
EXTT6=
EXTT7=
EXTT8=
EXTT9=
EXTT10=
EXTT11=
EXTT12=
PLAYORDER=
